<svg xmlns="http://www.w3.org/2000/svg" viewBox="0 0 739.601 739.601"><defs><style>.a{fill:#fff;stroke:#cc6d51;stroke-miterlimit:10;stroke-width:20px;}.b{fill:#cc6d51;}.c{fill:#232323;}</style></defs><title>icon</title><rect class="a" x="10" y="10" width="719.601" height="719.601"/><path class="b" d="M217.062,336.773a19.943,19.943,0,0,0-7.6-5.8,23.325,23.325,0,0,0-9.8-2.2,20.717,20.717,0,0,0-9.4,2.1,22.847,22.847,0,0,0-7.2,5.6,26.348,26.348,0,0,0-4.7,8.1,28.036,28.036,0,0,0-1.7,9.8,29.561,29.561,0,0,0,1.6,9.8,23.853,23.853,0,0,0,4.7,8.1,22.308,22.308,0,0,0,7.4,5.5,22.716,22.716,0,0,0,9.7,2,27.165,27.165,0,0,0,9.9-1.9,18.967,18.967,0,0,0,7.9-5.5l18.2,22.2a42.776,42.776,0,0,1-16,9.4,63.052,63.052,0,0,1-20.8,3.4,65.9,65.9,0,0,1-22.031-3.6,51.146,51.146,0,0,1-17.771-10.5,49.28,49.28,0,0,1-11.872-16.7,58.622,58.622,0,0,1,0-44.2,49.314,49.314,0,0,1,11.872-16.7,52.447,52.447,0,0,1,17.771-10.6,63.725,63.725,0,0,1,21.832-3.7,57.644,57.644,0,0,1,10.7,1,72.192,72.192,0,0,1,10.2,2.7,46.683,46.683,0,0,1,9,4.2,37.964,37.964,0,0,1,7.1,5.5Z" transform="translate(-55.395 -54.859)"/><path class="b" d="M354.46,353.973a53.857,53.857,0,0,1-4.4,22.1,49.588,49.588,0,0,1-12,16.8,54.938,54.938,0,0,1-17.6,10.7,61.871,61.871,0,0,1-42.7,0,53.486,53.486,0,0,1-17.6-10.7,50.2,50.2,0,0,1-11.9-16.8,53.809,53.809,0,0,1-4.4-22.1,53.13,53.13,0,0,1,4.4-22,49.4,49.4,0,0,1,11.9-16.6,51.775,51.775,0,0,1,17.6-10.4,65.114,65.114,0,0,1,42.7,0,53.124,53.124,0,0,1,17.6,10.4,48.81,48.81,0,0,1,12,16.6A53.176,53.176,0,0,1,354.46,353.973Zm-31.6,0a28.463,28.463,0,0,0-1.6-9.4,24.922,24.922,0,0,0-4.6-8.1,23.468,23.468,0,0,0-7.4-5.7,24.744,24.744,0,0,0-20.4,0,22.28,22.28,0,0,0-7.3,5.7,24.419,24.419,0,0,0-4.4,8.1,30.2,30.2,0,0,0,0,18.8,25.694,25.694,0,0,0,4.5,8.3,22.092,22.092,0,0,0,7.4,5.9,24.743,24.743,0,0,0,20.4,0,22.126,22.126,0,0,0,7.4-5.9,25.694,25.694,0,0,0,4.5-8.3A30.135,30.135,0,0,0,322.86,353.973Z" transform="translate(-55.395 -54.859)"/><path class="b" d="M486.057,353.973a62.889,62.889,0,0,1-3.2,20,51.443,51.443,0,0,1-9.3,16.9,45.914,45.914,0,0,1-14.9,11.7,44.157,44.157,0,0,1-20,4.4,41.832,41.832,0,0,1-17.4-3.7,31.023,31.023,0,0,1-12.8-10.1h-.4v59h-32.8v-147.6h31.2v12.2h.6a40.413,40.413,0,0,1,12.7-10.5,38.713,38.713,0,0,1,19.1-4.5,44.935,44.935,0,0,1,19.6,4.2,44.284,44.284,0,0,1,14.9,11.4,51.94,51.94,0,0,1,9.4,16.7A60.219,60.219,0,0,1,486.057,353.973Zm-31.8,0a30.148,30.148,0,0,0-1.5-9.4,24.488,24.488,0,0,0-4.4-8.1,22.053,22.053,0,0,0-17.5-7.9,22.057,22.057,0,0,0-10,2.2,23.86,23.86,0,0,0-7.5,5.8,26.486,26.486,0,0,0-4.8,8.2,26.849,26.849,0,0,0,0,18.8,26.453,26.453,0,0,0,4.8,8.2,23.811,23.811,0,0,0,7.5,5.8,22.019,22.019,0,0,0,10,2.2,22.5,22.5,0,0,0,10.2-2.2,21.683,21.683,0,0,0,7.3-5.8,25.43,25.43,0,0,0,4.4-8.3A31.063,31.063,0,0,0,454.257,353.973Z" transform="translate(-55.395 -54.859)"/><path class="b" d="M617.456,353.973a62.889,62.889,0,0,1-3.2,20,51.443,51.443,0,0,1-9.3,16.9,45.914,45.914,0,0,1-14.9,11.7,44.157,44.157,0,0,1-20,4.4,41.835,41.835,0,0,1-17.4-3.7,31.023,31.023,0,0,1-12.8-10.1h-.4v59h-32.8v-147.6h31.2v12.2h.6a40.413,40.413,0,0,1,12.7-10.5,38.714,38.714,0,0,1,19.1-4.5,44.935,44.935,0,0,1,19.6,4.2,44.284,44.284,0,0,1,14.9,11.4,51.94,51.94,0,0,1,9.4,16.7A60.219,60.219,0,0,1,617.456,353.973Zm-31.8,0a30.148,30.148,0,0,0-1.5-9.4,24.488,24.488,0,0,0-4.4-8.1,22.053,22.053,0,0,0-17.5-7.9,22.059,22.059,0,0,0-10,2.2,23.86,23.86,0,0,0-7.5,5.8,26.486,26.486,0,0,0-4.8,8.2,26.849,26.849,0,0,0,0,18.8,26.453,26.453,0,0,0,4.8,8.2,23.811,23.811,0,0,0,7.5,5.8,22.021,22.021,0,0,0,10,2.2,22.5,22.5,0,0,0,10.2-2.2,21.683,21.683,0,0,0,7.3-5.8,25.43,25.43,0,0,0,4.4-8.3A31.063,31.063,0,0,0,585.656,353.973Z" transform="translate(-55.395 -54.859)"/><path class="b" d="M702.657,331.573a25.69,25.69,0,0,0-4.3-.8c-1.4-.131-2.769-.2-4.1-.2a23.434,23.434,0,0,0-11.1,2.394,22.618,22.618,0,0,0-7.2,5.784,21.919,21.919,0,0,0-3.9,7.381,24.7,24.7,0,0,0-1.2,6.978v51.063h-32.8V304.691h31.6v14.4h.4a32.461,32.461,0,0,1,10.8-12.484,27.809,27.809,0,0,1,16.2-4.834,38,38,0,0,1,3.9.2,15.19,15.19,0,0,1,3.1.6Z" transform="translate(-55.395 -54.859)"/><path class="c" d="M168.783,518.681a20.121,20.121,0,0,1-1.024,6.4,16.461,16.461,0,0,1-2.976,5.408,14.686,14.686,0,0,1-4.768,3.743,14.126,14.126,0,0,1-6.4,1.408,13.384,13.384,0,0,1-5.568-1.184,9.925,9.925,0,0,1-4.1-3.232h-.128V550.1h-10.5V502.873h9.984v3.9h.192a12.923,12.923,0,0,1,4.064-3.36,12.389,12.389,0,0,1,6.112-1.44,14.373,14.373,0,0,1,6.272,1.345,14.154,14.154,0,0,1,4.768,3.647,16.624,16.624,0,0,1,3.008,5.344A19.272,19.272,0,0,1,168.783,518.681Zm-10.176,0a9.656,9.656,0,0,0-.48-3.008,7.822,7.822,0,0,0-1.408-2.592,7.141,7.141,0,0,0-2.336-1.824,7.216,7.216,0,0,0-3.264-.7,7.063,7.063,0,0,0-3.2.7,7.627,7.627,0,0,0-2.4,1.856,8.461,8.461,0,0,0-1.536,2.624,8.588,8.588,0,0,0,0,6.016,8.461,8.461,0,0,0,1.536,2.624,7.624,7.624,0,0,0,2.4,1.855,7.038,7.038,0,0,0,3.2.7,7.191,7.191,0,0,0,3.264-.7,6.936,6.936,0,0,0,2.336-1.855,8.137,8.137,0,0,0,1.408-2.656A9.944,9.944,0,0,0,158.607,518.681Z" transform="translate(-55.395 -54.859)"/><path class="c" d="M194.127,512.281a11.729,11.729,0,0,0-3.008-2.049,8.317,8.317,0,0,0-3.648-.832,6.412,6.412,0,0,0-2.72.576,2.021,2.021,0,0,0-1.248,1.984,1.975,1.975,0,0,0,1.376,1.92,30.057,30.057,0,0,0,4.448,1.28,24.078,24.078,0,0,1,3.616,1.088,12.809,12.809,0,0,1,3.3,1.855,8.9,8.9,0,0,1,2.368,2.816,8.266,8.266,0,0,1,.9,3.968,9.556,9.556,0,0,1-4.384,8.448,13.684,13.684,0,0,1-4.384,1.856,21.06,21.06,0,0,1-4.864.575,24.032,24.032,0,0,1-7.648-1.248,16.05,16.05,0,0,1-6.24-3.68l5.888-6.208a11.744,11.744,0,0,0,3.456,2.561,9.6,9.6,0,0,0,4.352,1.023,5.709,5.709,0,0,0,2.528-.608,2.181,2.181,0,0,0,1.248-2.144,2.3,2.3,0,0,0-1.536-2.176,27.667,27.667,0,0,0-4.8-1.473,24.718,24.718,0,0,1-3.328-1.023,10.493,10.493,0,0,1-2.976-1.729,8.56,8.56,0,0,1-2.144-2.687,8.219,8.219,0,0,1-.832-3.84,9.313,9.313,0,0,1,1.216-4.9,10.3,10.3,0,0,1,3.136-3.3,13.969,13.969,0,0,1,4.256-1.888,18.364,18.364,0,0,1,4.64-.608,22.422,22.422,0,0,1,7.008,1.12,15.151,15.151,0,0,1,5.792,3.36Z" transform="translate(-55.395 -54.859)"/><path class="c" d="M237.2,519.193v1.279a11.182,11.182,0,0,1-.064,1.216h-23.1a5.559,5.559,0,0,0,.8,2.433,6.909,6.909,0,0,0,1.728,1.888,8.482,8.482,0,0,0,5.088,1.7,8.834,8.834,0,0,0,4.224-.928,8.356,8.356,0,0,0,2.816-2.4l7.3,4.608a14.768,14.768,0,0,1-5.92,5.023,19.6,19.6,0,0,1-8.544,1.76,20.4,20.4,0,0,1-6.784-1.12,16.434,16.434,0,0,1-5.6-3.264,15.094,15.094,0,0,1-3.776-5.28,17.665,17.665,0,0,1-1.376-7.168,17.935,17.935,0,0,1,1.344-7.071,15.987,15.987,0,0,1,3.648-5.376,16.264,16.264,0,0,1,5.44-3.425,18.621,18.621,0,0,1,6.784-1.216,17.177,17.177,0,0,1,6.464,1.185,14.082,14.082,0,0,1,5.056,3.424,15.835,15.835,0,0,1,3.3,5.439A20.953,20.953,0,0,1,237.2,519.193Zm-9.664-4.032a6.3,6.3,0,0,0-1.568-4.288,5.921,5.921,0,0,0-4.7-1.792,7.975,7.975,0,0,0-2.816.479,7.308,7.308,0,0,0-2.24,1.313,6.491,6.491,0,0,0-1.536,1.952,5.7,5.7,0,0,0-.64,2.336Z" transform="translate(-55.395 -54.859)"/><path class="c" d="M264.717,534.745v-4.416h-.128a9.016,9.016,0,0,1-1.5,2.048,9.485,9.485,0,0,1-2.176,1.664,13.366,13.366,0,0,1-2.752,1.152,11.069,11.069,0,0,1-3.168.447,11.585,11.585,0,0,1-5.408-1.151A10.479,10.479,0,0,1,246,531.513a11.715,11.715,0,0,1-1.984-4.16,18.821,18.821,0,0,1-.608-4.768V502.873h10.56v17.28a16.406,16.406,0,0,0,.192,2.56,6.38,6.38,0,0,0,.736,2.176,4.039,4.039,0,0,0,1.44,1.5,4.515,4.515,0,0,0,2.368.544,4.8,4.8,0,0,0,4.192-2.048,8.131,8.131,0,0,0,1.44-4.8V502.873h10.5v31.872Z" transform="translate(-55.395 -54.859)"/><path class="c" d="M307.149,534.745v-4.16h-.128a9.961,9.961,0,0,1-4.384,3.744,14.294,14.294,0,0,1-6.048,1.312,14.116,14.116,0,0,1-6.4-1.408,14.667,14.667,0,0,1-4.768-3.743,16.434,16.434,0,0,1-2.976-5.408,20.093,20.093,0,0,1-1.024-6.4,19.285,19.285,0,0,1,1.056-6.368,16.605,16.605,0,0,1,3.008-5.344,14.034,14.034,0,0,1,10.976-4.992,12.15,12.15,0,0,1,5.952,1.345,13.219,13.219,0,0,1,3.776,2.943h.128v-19.9h10.5v48.384Zm-.384-16a8.62,8.62,0,0,0-.544-3.008,8.5,8.5,0,0,0-1.536-2.624,7.644,7.644,0,0,0-2.4-1.856,7.069,7.069,0,0,0-3.2-.7,7.211,7.211,0,0,0-3.264.7,7.36,7.36,0,0,0-3.808,4.416,9.656,9.656,0,0,0-.48,3.008,9.944,9.944,0,0,0,.48,3.04,7.826,7.826,0,0,0,1.44,2.656,7.269,7.269,0,0,0,2.368,1.855,7.186,7.186,0,0,0,3.264.7,7.043,7.043,0,0,0,3.2-.7,7.641,7.641,0,0,0,2.4-1.855,8.5,8.5,0,0,0,1.536-2.624A8.624,8.624,0,0,0,306.765,518.745Z" transform="translate(-55.395 -54.859)"/><path class="c" d="M358.925,518.681a17.245,17.245,0,0,1-1.408,7.072,15.864,15.864,0,0,1-3.84,5.376,17.592,17.592,0,0,1-5.633,3.424,19.8,19.8,0,0,1-13.663,0,17.111,17.111,0,0,1-5.632-3.424,16.055,16.055,0,0,1-3.808-5.376,17.221,17.221,0,0,1-1.408-7.072,17,17,0,0,1,1.408-7.04,15.809,15.809,0,0,1,3.808-5.312A16.556,16.556,0,0,1,334.381,503a20.826,20.826,0,0,1,13.663,0,17,17,0,0,1,5.633,3.328,15.624,15.624,0,0,1,3.84,5.312A17.027,17.027,0,0,1,358.925,518.681Zm-10.111,0a9.091,9.091,0,0,0-.514-3.008,7.986,7.986,0,0,0-1.471-2.592,7.5,7.5,0,0,0-2.369-1.824,7.916,7.916,0,0,0-6.527,0,7.126,7.126,0,0,0-2.336,1.824,7.813,7.813,0,0,0-1.408,2.592,9.664,9.664,0,0,0,0,6.016,8.23,8.23,0,0,0,1.44,2.656A7.069,7.069,0,0,0,338,526.232a7.917,7.917,0,0,0,6.528,0,7.092,7.092,0,0,0,2.369-1.888,8.248,8.248,0,0,0,1.439-2.656A9.628,9.628,0,0,0,348.813,518.681Z" transform="translate(-55.395 -54.859)"/><path class="c" d="M392.972,492.7a5.419,5.419,0,0,1-.48,2.271,5.745,5.745,0,0,1-3.2,3.04,6.232,6.232,0,0,1-2.336.448,5.879,5.879,0,0,1-4.288-1.7,5.494,5.494,0,0,1-1.728-4.063,5.593,5.593,0,0,1,.448-2.208,5.219,5.219,0,0,1,1.279-1.824,6.938,6.938,0,0,1,1.92-1.248,5.8,5.8,0,0,1,2.368-.48,6.251,6.251,0,0,1,2.336.448,5.745,5.745,0,0,1,3.2,3.04A5.424,5.424,0,0,1,392.972,492.7Zm-11.265,42.048V502.873h10.5v31.872Z" transform="translate(-55.395 -54.859)"/><path class="c" d="M421.451,534.745V517.337a14.1,14.1,0,0,0-.225-2.56,7.081,7.081,0,0,0-.735-2.145,3.832,3.832,0,0,0-1.44-1.472,4.569,4.569,0,0,0-2.336-.544,5.312,5.312,0,0,0-2.464.544,4.969,4.969,0,0,0-1.76,1.5,6.8,6.8,0,0,0-1.057,2.208,9.515,9.515,0,0,0-.352,2.592v17.28H400.522V502.873H410.7v4.416h.128a10.522,10.522,0,0,1,1.5-2.017,9.055,9.055,0,0,1,2.176-1.7,13.522,13.522,0,0,1,2.72-1.152,10.742,10.742,0,0,1,3.136-.448,11.789,11.789,0,0,1,5.44,1.152,10.4,10.4,0,0,1,3.616,2.976A11.731,11.731,0,0,1,431.4,510.3a18.989,18.989,0,0,1,.608,4.736v19.712Z" transform="translate(-55.395 -54.859)"/><path class="c" d="M451.339,510.681v12.207a5.5,5.5,0,0,0,.863,3.373,3.7,3.7,0,0,0,3.1,1.124,11.079,11.079,0,0,0,1.632-.128,5.585,5.585,0,0,0,1.44-.384l.128,7.68a17.337,17.337,0,0,1-2.752.672,19.46,19.46,0,0,1-3.328.288,15.666,15.666,0,0,1-5.376-.8,8.309,8.309,0,0,1-3.488-2.311,9.05,9.05,0,0,1-1.888-3.593,17.465,17.465,0,0,1-.576-4.651V510.681h-5.12v-7.808h5.056v-8.384h10.3v8.384h7.487v7.808Z" transform="translate(-55.395 -54.859)"/><path class="c" d="M495.371,519.193v1.279a11.186,11.186,0,0,1-.063,1.216H472.2a5.571,5.571,0,0,0,.8,2.433,6.913,6.913,0,0,0,1.729,1.888,8.482,8.482,0,0,0,5.088,1.7,8.832,8.832,0,0,0,4.224-.928,8.36,8.36,0,0,0,2.816-2.4l7.3,4.608a14.765,14.765,0,0,1-5.92,5.023,19.6,19.6,0,0,1-8.544,1.76,20.4,20.4,0,0,1-6.784-1.12,16.432,16.432,0,0,1-5.6-3.264,15.089,15.089,0,0,1-3.776-5.28,17.665,17.665,0,0,1-1.376-7.168,17.944,17.944,0,0,1,1.344-7.071,15.988,15.988,0,0,1,3.648-5.376,16.265,16.265,0,0,1,5.439-3.425,18.626,18.626,0,0,1,6.784-1.216,17.179,17.179,0,0,1,6.464,1.185,14.092,14.092,0,0,1,5.057,3.424,15.85,15.85,0,0,1,3.3,5.439A20.954,20.954,0,0,1,495.371,519.193Zm-9.664-4.032a6.3,6.3,0,0,0-1.567-4.288,5.923,5.923,0,0,0-4.7-1.792,7.978,7.978,0,0,0-2.816.479,7.328,7.328,0,0,0-2.24,1.313,6.514,6.514,0,0,0-1.536,1.952,5.709,5.709,0,0,0-.64,2.336Z" transform="translate(-55.395 -54.859)"/><path class="c" d="M522.569,511.513a8.214,8.214,0,0,0-1.376-.256c-.447-.042-.886-.063-1.312-.063a7.5,7.5,0,0,0-3.552.766,7.244,7.244,0,0,0-2.3,1.851,7.054,7.054,0,0,0-1.248,2.362,7.9,7.9,0,0,0-.384,2.233v16.34H501.9V502.911H512.01v4.607h.128a10.393,10.393,0,0,1,3.456-4,8.9,8.9,0,0,1,5.184-1.547,12.1,12.1,0,0,1,1.248.064,4.856,4.856,0,0,1,.992.191Z" transform="translate(-55.395 -54.859)"/><path class="c" d="M562.7,518.681a20.134,20.134,0,0,1-1.023,6.4,16.488,16.488,0,0,1-2.977,5.408,14.686,14.686,0,0,1-4.768,3.743,14.123,14.123,0,0,1-6.4,1.408,13.382,13.382,0,0,1-5.567-1.184,9.932,9.932,0,0,1-4.1-3.232h-.128V550.1h-10.5V502.873h9.984v3.9h.192a12.92,12.92,0,0,1,4.063-3.36,12.389,12.389,0,0,1,6.112-1.44,14.37,14.37,0,0,1,6.271,1.345,14.167,14.167,0,0,1,4.769,3.647,16.632,16.632,0,0,1,3.008,5.344A19.272,19.272,0,0,1,562.7,518.681Zm-10.176,0a9.669,9.669,0,0,0-.479-3.008,7.831,7.831,0,0,0-1.408-2.592,7.055,7.055,0,0,0-5.6-2.528,7.061,7.061,0,0,0-3.2.7,7.624,7.624,0,0,0-2.4,1.856,8.47,8.47,0,0,0-1.536,2.624,8.588,8.588,0,0,0,0,6.016,8.47,8.47,0,0,0,1.536,2.624,7.621,7.621,0,0,0,2.4,1.855,7.035,7.035,0,0,0,3.2.7,7.2,7.2,0,0,0,3.265-.7,6.946,6.946,0,0,0,2.336-1.855,8.147,8.147,0,0,0,1.408-2.656A9.959,9.959,0,0,0,552.521,518.681Z" transform="translate(-55.395 -54.859)"/><path class="c" d="M589.962,511.513a8.214,8.214,0,0,0-1.376-.256c-.447-.042-.886-.063-1.312-.063a7.5,7.5,0,0,0-3.552.766,7.244,7.244,0,0,0-2.3,1.851,7.054,7.054,0,0,0-1.248,2.362,7.9,7.9,0,0,0-.384,2.233v16.34h-10.5V502.911H579.4v4.607h.128a10.393,10.393,0,0,1,3.456-4,8.9,8.9,0,0,1,5.184-1.547,12.1,12.1,0,0,1,1.248.064,4.856,4.856,0,0,1,.992.191Z" transform="translate(-55.395 -54.859)"/><path class="c" d="M625.1,519.193v1.279a11.186,11.186,0,0,1-.063,1.216h-23.1a5.571,5.571,0,0,0,.8,2.433,6.913,6.913,0,0,0,1.729,1.888,8.482,8.482,0,0,0,5.088,1.7,8.832,8.832,0,0,0,4.224-.928,8.36,8.36,0,0,0,2.816-2.4l7.3,4.608a14.765,14.765,0,0,1-5.92,5.023,19.6,19.6,0,0,1-8.544,1.76,20.4,20.4,0,0,1-6.784-1.12,16.432,16.432,0,0,1-5.6-3.264,15.089,15.089,0,0,1-3.776-5.28,17.665,17.665,0,0,1-1.376-7.168,17.944,17.944,0,0,1,1.344-7.071,15.988,15.988,0,0,1,3.648-5.376,16.265,16.265,0,0,1,5.439-3.425,18.626,18.626,0,0,1,6.784-1.216,17.179,17.179,0,0,1,6.464,1.185,14.092,14.092,0,0,1,5.057,3.424,15.85,15.85,0,0,1,3.3,5.439A20.954,20.954,0,0,1,625.1,519.193Zm-9.664-4.032a6.3,6.3,0,0,0-1.567-4.288,5.923,5.923,0,0,0-4.7-1.792,7.978,7.978,0,0,0-2.816.479,7.328,7.328,0,0,0-2.24,1.313,6.514,6.514,0,0,0-1.536,1.952,5.709,5.709,0,0,0-.64,2.336Z" transform="translate(-55.395 -54.859)"/><path class="c" d="M643.019,510.681v12.207a5.5,5.5,0,0,0,.863,3.373,3.7,3.7,0,0,0,3.1,1.124,11.079,11.079,0,0,0,1.632-.128,5.585,5.585,0,0,0,1.44-.384l.128,7.68a17.337,17.337,0,0,1-2.752.672,19.46,19.46,0,0,1-3.328.288,15.666,15.666,0,0,1-5.376-.8,8.309,8.309,0,0,1-3.488-2.311,9.05,9.05,0,0,1-1.888-3.593,17.465,17.465,0,0,1-.576-4.651V510.681h-5.12v-7.808h5.056v-8.384h10.3v8.384h7.487v7.808Z" transform="translate(-55.395 -54.859)"/><path class="c" d="M687.049,519.193v1.279a11.186,11.186,0,0,1-.063,1.216h-23.1a5.571,5.571,0,0,0,.8,2.433,6.913,6.913,0,0,0,1.729,1.888,8.482,8.482,0,0,0,5.088,1.7,8.832,8.832,0,0,0,4.224-.928,8.36,8.36,0,0,0,2.816-2.4l7.3,4.608a14.765,14.765,0,0,1-5.92,5.023,19.6,19.6,0,0,1-8.544,1.76,20.4,20.4,0,0,1-6.784-1.12,16.432,16.432,0,0,1-5.6-3.264,15.089,15.089,0,0,1-3.776-5.28,17.665,17.665,0,0,1-1.376-7.168,17.944,17.944,0,0,1,1.344-7.071,15.988,15.988,0,0,1,3.648-5.376,16.265,16.265,0,0,1,5.439-3.425,18.626,18.626,0,0,1,6.784-1.216,17.179,17.179,0,0,1,6.464,1.185,14.092,14.092,0,0,1,5.057,3.424,15.85,15.85,0,0,1,3.3,5.439A20.954,20.954,0,0,1,687.049,519.193Zm-9.664-4.032a6.3,6.3,0,0,0-1.567-4.288,5.923,5.923,0,0,0-4.7-1.792,7.978,7.978,0,0,0-2.816.479,7.328,7.328,0,0,0-2.24,1.313,6.514,6.514,0,0,0-1.536,1.952,5.709,5.709,0,0,0-.64,2.336Z" transform="translate(-55.395 -54.859)"/><path class="c" d="M714.249,511.513a8.214,8.214,0,0,0-1.376-.256c-.447-.042-.886-.063-1.312-.063a7.5,7.5,0,0,0-3.552.766,7.244,7.244,0,0,0-2.3,1.851,7.054,7.054,0,0,0-1.248,2.362,7.9,7.9,0,0,0-.384,2.233v16.34h-10.5V502.911h10.112v4.607h.128a10.393,10.393,0,0,1,3.456-4,8.9,8.9,0,0,1,5.184-1.547,12.1,12.1,0,0,1,1.248.064,4.856,4.856,0,0,1,.992.191Z" transform="translate(-55.395 -54.859)"/></svg>